HIERARCHY
ROOT Hips
{
	OFFSET 0.00000 0.00000 0.00000
	CHANNELS 6 Xposition Yposition Zposition Zrotation Yrotation Xrotation 
	JOINT RightUpLegDummy
	{
		OFFSET 0 0 0
		CHANNELS 3 Zrotation Yrotation Xrotation
		JOINT RightUpLeg
		{
			OFFSET -3.52197 -3.41223 0.04002
			CHANNELS 3 Zrotation Yrotation Xrotation
			JOINT RightLeg
			{
				OFFSET 0.00006 -17.42390 1.60435
				CHANNELS 3 Zrotation Yrotation Xrotation
				JOINT RightFoot
				{
					OFFSET 0.06153 -16.50078 -1.63901
					CHANNELS 3 Zrotation Yrotation Xrotation
					JOINT RightToes
					{
						OFFSET 0.00298 -1.73825 3.34613
						CHANNELS 3 Zrotation Yrotation Xrotation
						End Site
						{
							OFFSET 0.00480 -0.05416 3.85043
						}
					}
				}
			}
		}
	}
	JOINT SpineDummy
	{
		OFFSET 0 0 0
		CHANNELS 3 Zrotation Yrotation Xrotation
		JOINT Spine
		{
			OFFSET 0.00000 4.68130 0.00000
			CHANNELS 3 Zrotation Yrotation Xrotation
			JOINT Spine1
			{
				OFFSET -0.00000 10.10138 0.05002
				CHANNELS 3 Zrotation Yrotation Xrotation
				JOINT HEadDummy
				{
					OFFSET 0 0 0
					CHANNELS 3 Zrotation Yrotation Xrotation
					JOINT Head
					{
						OFFSET -0.00000 3.43865 0.00438
						CHANNELS 3 Zrotation Yrotation Xrotation
						End Site
						{
							OFFSET -0.11417 5.02924 0.98962
						}
					}
				}
				JOINT LeftShoulder1Dummy
				{
					OFFSET 0 0 0
					CHANNELS 3 Zrotation Yrotation Xrotation
					JOINT LeftShoulder1
					{
						OFFSET 3.53937 -0.14262 -0.08662
						CHANNELS 3 Zrotation Yrotation Xrotation
						JOINT LeftArm
						{
							OFFSET 4.04833 -0.00133 0.12681
							CHANNELS 3 Zrotation Yrotation Xrotation
							JOINT LeftForeArm
							{
								OFFSET 10.33880 -0.01036 -0.55515
								CHANNELS 3 Zrotation Yrotation Xrotation
								JOINT LeftHand
								{
									OFFSET 8.69677 0.07543 0.40060
									CHANNELS 3 Zrotation Yrotation Xrotation
									End Site
									{
										OFFSET 5.28377 -0.21905 0.59205
									}
								}
							}
						}
					}
				}
				JOINT RightShoulderDummy
				{
					OFFSET 0 0 0
					CHANNELS 3 Zrotation Yrotation Xrotation
					JOINT RightShoulder
					{
						OFFSET -3.53937 -0.14262 -0.08660
						CHANNELS 3 Zrotation Yrotation Xrotation
						JOINT RightArm
						{
							OFFSET -4.04833 -0.00133 0.12683
							CHANNELS 3 Zrotation Yrotation Xrotation
							JOINT RightForeArm
							{
								OFFSET -10.37987 -0.01039 -0.55511
								CHANNELS 3 Zrotation Yrotation Xrotation
								JOINT RightHand
								{
									OFFSET -8.67398 0.07538 0.40058
									CHANNELS 3 Zrotation Yrotation Xrotation
									End Site
									{
										OFFSET -5.24810 -0.21916 0.59204
									}
								}
							}
						}
					}
				}
			}
		}
	}
	JOINT LeftUpLegDummy
	{
		OFFSET 0 0 0
		CHANNELS 3 Zrotation Yrotation Xrotation
		JOINT LeftUpLeg
		{
			OFFSET 3.52197 -3.41223 0.04002
			CHANNELS 3 Zrotation Yrotation Xrotation
			JOINT LeftLeg
			{
				OFFSET -0.00012 -17.42399 1.60337
				CHANNELS 3 Zrotation Yrotation Xrotation
				JOINT LeftFoot
				{
					OFFSET -0.09972 -16.50070 -1.63802
					CHANNELS 3 Zrotation Yrotation Xrotation
					JOINT LeftToes
					{
						OFFSET -0.01575 -1.73823 3.34611
						CHANNELS 3 Zrotation Yrotation Xrotation
						End Site
						{
							OFFSET 0.03150 -0.01868 3.85031
						}
					}
				}
			}
		}
	}
}
MOTION
Frames: 9
Frame Time: 0.033333
45.9049 39.8316 83.5189 179.7250 1.6899 177.5250 0.0000 0.0000 0.0000 2.5599 -1.3834 2.6191 -1.5157 -7.5066 3.5576 -3.0713 0.1604 -4.0978 0.0000 -0.0000 -0.0000 0.0000 0.0000 0.0000 -0.3999 0.3735 2.9103 4.3454 -0.3945 -0.5597 -0.0000 0.0000 -0.0000 0.0513 4.2086 -6.9255 -0.0000 0.0000 -0.0000 -35.2256 -2.7334 2.5744 -44.7467 -15.2248 -16.2066 -10.9064 5.0206 51.5003 13.3234 -2.6008 -0.8959 -0.0000 0.0000 -0.0000 33.6679 4.9087 3.3393 40.3865 4.6916 -16.9542 11.1050 1.1941 17.8294 -13.8454 -1.6238 -0.4593 0.0000 0.0000 0.0000 0.3611 0.9102 2.0797 1.0049 2.2885 4.6705 2.3655 -0.1296 -3.7441 0.0000 0.0000 -0.0000
45.9094 39.8316 83.5305 179.7490 1.6976 177.5710 0.0000 0.0000 0.0000 2.6019 -1.3500 2.5584 -1.5160 -7.4972 3.5368 -3.0560 0.1593 -4.0575 0.0000 -0.0000 -0.0000 0.0000 0.0000 0.0000 -0.3512 0.3771 2.9402 4.3248 -0.3945 -0.6277 -0.0000 0.0000 -0.0000 0.0925 4.1474 -7.1218 -0.0000 0.0000 -0.0000 -35.1350 -2.7182 2.5624 -44.8294 -15.2928 -16.1768 -10.9104 5.0207 51.4974 13.1777 -2.7953 -0.9064 -0.0000 0.0000 -0.0000 33.6651 4.9098 3.3370 40.2978 4.7209 -17.0112 11.0958 1.0316 17.8169 -13.8216 -1.5665 -0.4650 0.0000 0.0000 0.0000 0.4408 1.0034 1.9644 0.9116 2.1959 4.7703 2.4152 -0.1328 -3.7794 0.0000 0.0000 -0.0000
45.9103 39.8316 83.5528 179.7810 1.6668 177.6480 0.0000 0.0000 0.0000 2.6491 -1.3091 2.4351 -1.5281 -7.5482 3.5481 -3.0699 0.1601 -4.0398 0.0000 -0.0000 -0.0000 0.0000 0.0000 0.0000 -0.2519 0.3542 3.0138 4.2901 -0.4090 -0.7817 -0.0000 0.0000 -0.0000 0.0728 3.9733 -7.3643 -0.0000 0.0000 -0.0000 -35.0313 -2.7002 2.5484 -44.9392 -15.3728 -16.0678 -10.9594 5.0222 51.4259 12.6395 -3.0160 -0.8907 -0.0000 0.0000 -0.0000 33.5902 4.8883 3.3230 40.3387 4.8754 -17.3673 10.9129 0.4859 18.7077 -13.8845 -1.4675 -0.4782 0.0000 0.0000 0.0000 0.5148 1.0775 1.7658 0.8332 2.0863 4.9208 2.4526 -0.1352 -3.8158 0.0000 0.0000 -0.0000
45.9032 39.8316 83.5725 179.7600 1.6351 177.6680 0.0000 0.0000 0.0000 2.6087 -1.3333 2.3484 -1.5240 -7.5616 3.6224 -3.0747 0.1605 -4.0826 0.0000 -0.0000 -0.0000 0.0000 0.0000 0.0000 -0.2140 0.3511 3.1440 4.3067 -0.4091 -0.9779 -0.0000 0.0000 -0.0000 -0.0285 3.7278 -7.5201 -0.0000 0.0000 -0.0000 -34.9885 -2.7222 2.5547 -45.0669 -15.4183 -15.8398 -11.0698 5.0230 51.3552 12.0165 -2.9986 -0.8435 -0.0000 0.0000 -0.0000 33.4834 4.8488 3.2984 40.5087 4.9585 -17.9006 10.6344 0.0055 19.8480 -14.0151 -1.5824 -0.4695 0.0000 0.0000 0.0000 0.4688 1.0341 1.6786 0.8590 2.1013 4.9794 2.4407 -0.1345 -3.8091 0.0000 0.0000 -0.0000
45.8949 39.8316 83.5846 179.7020 1.6466 177.6240 0.0000 0.0000 0.0000 2.5151 -1.3975 2.3257 -1.5028 -7.4811 3.7249 -3.0267 0.1576 -4.1409 0.0000 -0.0000 -0.0000 0.0000 0.0000 0.0000 -0.2672 0.3540 3.3002 4.4109 -0.4163 -1.1710 -0.0000 0.0000 -0.0000 -0.1375 3.5984 -7.6000 -0.0000 0.0000 -0.0000 -35.0570 -2.7616 2.5752 -45.1497 -15.3806 -15.5717 -11.2094 5.0222 51.3244 11.7044 -2.8676 -0.8085 -0.0000 0.0000 -0.0000 33.4329 4.8331 3.2880 40.5451 4.9120 -18.2039 10.4984 -0.1526 20.1577 -14.1098 -1.9433 -0.4312 0.0000 0.0000 0.0000 0.3846 0.9842 1.7208 0.8808 2.1689 4.9566 2.4246 -0.1334 -3.7873 0.0000 0.0000 -0.0000
45.8903 39.8293 83.5944 179.7010 1.6666 177.6060 0.0000 0.0000 0.0000 2.5079 -1.3965 2.2973 -1.5082 -7.4394 3.7882 -2.9764 0.1544 -4.1587 0.0000 -0.0000 -0.0000 0.0000 0.0000 0.0000 -0.2647 0.2612 3.3860 4.5399 -0.5292 -1.3127 -0.0000 0.0000 -0.0000 -0.2208 3.6826 -7.6625 -0.0000 0.0000 -0.0000 -35.3240 -2.7534 2.5889 -45.0031 -15.2071 -15.4017 -11.3460 5.0240 51.2091 11.6818 -2.8793 -0.8080 -0.0000 0.0000 -0.0000 33.3722 4.8509 3.2899 40.4102 4.9714 -18.0307 10.6075 -0.2818 19.7548 -14.2232 -2.2442 -0.3997 0.0000 0.0000 0.0000 0.4460 1.1031 1.7054 0.7410 2.0792 5.0033 2.4932 -0.1378 -3.8113 0.0000 0.0000 -0.0000
45.8858 39.8285 83.6041 179.7900 1.6595 177.6540 0.0000 0.0000 0.0000 2.6183 -1.3143 2.2429 -1.5444 -7.5241 3.7734 -3.0184 0.1571 -4.1347 0.0000 -0.0000 -0.0000 0.0000 0.0000 0.0000 -0.0955 0.0678 3.3315 4.5872 -0.7395 -1.3347 -0.0000 0.0000 -0.0000 -0.2589 3.8886 -7.6184 -0.0000 0.0000 -0.0000 -35.7334 -2.6960 2.5911 -44.6237 -14.9717 -15.3657 -11.4613 5.0309 50.9352 11.7316 -2.9997 -0.8228 -0.0000 0.0000 -0.0000 33.1725 4.8575 3.2757 40.3961 5.1999 -17.5569 10.8356 -0.4948 19.4152 -14.4049 -2.2316 -0.4061 0.0000 0.0000 0.0000 0.6645 1.3725 1.5632 0.4703 1.8160 5.1592 2.6506 -0.1480 -3.8804 0.0000 0.0000 -0.0000
45.8807 39.8283 83.6081 179.8750 1.6657 177.6850 0.0000 0.0000 0.0000 2.7138 -1.2554 2.2365 -1.5579 -7.6038 3.7151 -3.1522 0.1656 -4.1075 0.0000 -0.0000 -0.0000 0.0000 0.0000 0.0000 0.1062 -0.0858 3.2150 4.5462 -0.8993 -1.2355 -0.0000 0.0000 -0.0000 -0.2342 4.0393 -7.6405 -0.0000 0.0000 -0.0000 -36.0471 -2.6466 2.5903 -44.2841 -14.8255 -15.3776 -11.5383 5.0390 50.6381 11.8301 -3.0038 -0.8303 -0.0000 0.0000 -0.0000 32.9136 4.8294 3.2430 40.6514 5.2892 -17.2426 10.9588 -0.4476 19.4511 -14.4071 -1.9099 -0.4438 0.0000 0.0000 0.0000 0.8444 1.5826 1.4744 0.2713 1.6180 5.2660 2.7589 -0.1549 -3.9284 0.0000 0.0000 -0.0000
45.8818 39.8284 83.6064 179.8720 1.7162 177.6340 0.0000 0.0000 0.0000 2.7058 -1.2733 2.3037 -1.5386 -7.5620 3.6904 -3.2501 0.1719 -4.1010 0.0000 -0.0000 -0.0000 0.0000 0.0000 0.0000 0.0476 -0.0751 3.2197 4.6452 -0.9076 -1.1599 -0.0000 0.0000 -0.0000 -0.1659 4.0731 -7.7459 -0.0000 0.0000 -0.0000 -36.1577 -2.6493 2.5984 -44.1788 -14.8254 -15.3719 -11.5630 5.0420 50.5299 12.0354 -2.8716 -0.8326 -0.0000 0.0000 -0.0000 32.7840 4.7942 3.2186 40.9276 5.0197 -17.3436 10.8788 -0.0308 19.7163 -13.9832 -1.3536 -0.4942 0.0000 0.0000 0.0000 0.8609 1.6111 1.5675 0.2497 1.6260 5.2093 2.7100 -0.1505 -3.9177 0.0000 0.0000 -0.0000
